<svg xmlns="http://www.w3.org/2000/svg" viewBox="0 0 256 256" role="img" aria-label="Female nurse avatar">
  <defs>
    <radialGradient id="bg" cx="50%" cy="35%" r="65%">
      <stop offset="0%" stop-color="#fce7f3"/>
      <stop offset="100%" stop-color="#f9a8d4"/>
    </radialGradient>
    <linearGradient id="scrubs" x1="0" y1="0" x2="0" y2="1">
      <stop offset="0%" stop-color="#2dd4bf"/>
      <stop offset="100%" stop-color="#0d9488"/>
    </linearGradient>
    <linearGradient id="skin" x1="0" y1="0" x2="0" y2="1">
      <stop offset="0%" stop-color="#fde8d8"/>
      <stop offset="100%" stop-color="#e8b090"/>
    </linearGradient>
  </defs>
  <circle cx="128" cy="128" r="120" fill="url(#bg)"/>
  <ellipse cx="128" cy="202" rx="74" ry="50" fill="url(#scrubs)"/>
  <path d="M94 196h68c-4 12-64 12-68 0z" fill="#0f766e"/>
  <ellipse cx="128" cy="110" rx="44" ry="48" fill="url(#skin)"/>
  <circle cx="128" cy="72" r="36" fill="#713f12"/>
  <ellipse cx="128" cy="78" rx="38" ry="28" fill="#92400e"/>
  <ellipse cx="112" cy="110" rx="5" ry="6" fill="#292524"/>
  <ellipse cx="144" cy="110" rx="5" ry="6" fill="#292524"/>
  <path d="M118 126q10 8 20 0" stroke="#9d174d" stroke-width="3" fill="none" stroke-linecap="round"/>
  <path d="M128 56c-20 0-32 12-32 28 0 16 12 28 32 28s32-12 32-28c0-16-12-28-32-28z" fill="#a16207" opacity=".35"/>
</svg>
